<mxfile host="app.diagrams.net" modified="2024-04-23T04:25:10.839Z" agent="Mozilla/5.0 (Windows NT 10.0; Win64; x64) AppleWebKit/537.36 (KHTML, like Gecko) Chrome/124.0.0.0 Safari/537.36" etag="PF4ItArMzlWr0vCEdnUa" version="24.2.8" type="device">
  <diagram name="Page-1" id="9DtRnvG6MYJhvWrZ48I_">
    <mxGraphModel dx="2577" dy="962" grid="1" gridSize="10" guides="1" tooltips="1" connect="1" arrows="1" fold="1" page="1" pageScale="1" pageWidth="827" pageHeight="1169" math="0" shadow="0">
      <root>
        <mxCell id="0" />
        <mxCell id="1" parent="0" />
        <mxCell id="DHnqmFNYcz4ugnSw5rKa-1" value="&lt;p style=&quot;margin: 4px 0px 0px; text-align: center;&quot;&gt;&lt;b style=&quot;&quot;&gt;&lt;font style=&quot;font-size: 20px;&quot;&gt;Teacher&lt;/font&gt;&lt;/b&gt;&lt;/p&gt;&lt;hr size=&quot;1&quot; style=&quot;border-style: solid; font-size: 16px;&quot;&gt;&lt;p style=&quot;margin: 0px 0px 0px 4px; font-size: 16px;&quot;&gt;&lt;font style=&quot;font-size: 16px;&quot;&gt;- teacherld: int&lt;/font&gt;&lt;/p&gt;&lt;p style=&quot;margin: 0px 0px 0px 4px; font-size: 16px;&quot;&gt;&lt;font style=&quot;font-size: 16px;&quot;&gt;- teacherName: String&lt;/font&gt;&lt;/p&gt;&lt;p style=&quot;margin: 0px 0px 0px 4px; font-size: 16px;&quot;&gt;&lt;font style=&quot;font-size: 16px;&quot;&gt;- address: String&lt;/font&gt;&lt;/p&gt;&lt;p style=&quot;margin: 0px 0px 0px 4px; font-size: 16px;&quot;&gt;&lt;font style=&quot;font-size: 16px;&quot;&gt;- working Type: String&lt;/font&gt;&lt;/p&gt;&lt;p style=&quot;margin: 0px 0px 0px 4px; font-size: 16px;&quot;&gt;&lt;font style=&quot;font-size: 16px;&quot;&gt;- employmentStatus: String&lt;/font&gt;&lt;/p&gt;&lt;p style=&quot;margin: 0px 0px 0px 4px; font-size: 16px;&quot;&gt;&lt;font style=&quot;font-size: 16px;&quot;&gt;- workingHours: int&lt;/font&gt;&lt;/p&gt;&lt;hr size=&quot;1&quot; style=&quot;border-style:solid;&quot;&gt;&lt;p style=&quot;margin: 0px 0px 0px 4px; font-size: 16px;&quot;&gt;&lt;font style=&quot;font-size: 16px;&quot;&gt;+ Teacher(&lt;/font&gt;&lt;/p&gt;&lt;p style=&quot;margin: 0px 0px 0px 4px; font-size: 16px;&quot;&gt;&lt;font style=&quot;font-size: 16px;&quot;&gt;&amp;nbsp; &amp;nbsp;teacherld: int,&lt;/font&gt;&lt;/p&gt;&lt;p style=&quot;margin: 0px 0px 0px 4px; font-size: 16px;&quot;&gt;&lt;font style=&quot;font-size: 16px;&quot;&gt;&amp;nbsp; &amp;nbsp;teacherName: String,&lt;/font&gt;&lt;/p&gt;&lt;p style=&quot;margin: 0px 0px 0px 4px; font-size: 16px;&quot;&gt;&lt;font style=&quot;font-size: 16px;&quot;&gt;&amp;nbsp; &amp;nbsp;address: String,&lt;/font&gt;&lt;/p&gt;&lt;p style=&quot;margin: 0px 0px 0px 4px; font-size: 16px;&quot;&gt;&lt;font style=&quot;font-size: 16px;&quot;&gt;&amp;nbsp; &amp;nbsp;working Type: String,&lt;/font&gt;&lt;/p&gt;&lt;p style=&quot;margin: 0px 0px 0px 4px; font-size: 16px;&quot;&gt;&lt;font style=&quot;font-size: 16px;&quot;&gt;&amp;nbsp; &amp;nbsp;employmentStatus: String)&lt;/font&gt;&lt;/p&gt;&lt;p style=&quot;margin: 0px 0px 0px 4px; font-size: 16px;&quot;&gt;&lt;font style=&quot;font-size: 16px;&quot;&gt;+ gefTeacherld(): int&lt;/font&gt;&lt;/p&gt;&lt;p style=&quot;margin: 0px 0px 0px 4px; font-size: 16px;&quot;&gt;&lt;font style=&quot;font-size: 16px;&quot;&gt;+ getTeacherName(): String&lt;/font&gt;&lt;/p&gt;&lt;p style=&quot;margin: 0px 0px 0px 4px; font-size: 16px;&quot;&gt;&lt;font style=&quot;font-size: 16px;&quot;&gt;+ getAddress(): String&lt;/font&gt;&lt;/p&gt;&lt;p style=&quot;margin: 0px 0px 0px 4px; font-size: 16px;&quot;&gt;&lt;font style=&quot;font-size: 16px;&quot;&gt;+ getWorkingType(): String&lt;/font&gt;&lt;/p&gt;&lt;p style=&quot;margin: 0px 0px 0px 4px; font-size: 16px;&quot;&gt;&lt;font style=&quot;font-size: 16px;&quot;&gt;+ getEmploymentStatus(): String&lt;/font&gt;&lt;/p&gt;&lt;p style=&quot;margin: 0px 0px 0px 4px; font-size: 16px;&quot;&gt;&lt;font style=&quot;font-size: 16px;&quot;&gt;+ getWorkingHours(): int&lt;/font&gt;&lt;/p&gt;&lt;p style=&quot;margin: 0px 0px 0px 4px; font-size: 16px;&quot;&gt;&lt;font style=&quot;font-size: 16px;&quot;&gt;+ setWorkingHours(hours: int): void&lt;/font&gt;&lt;/p&gt;&lt;p style=&quot;margin: 0px 0px 0px 4px; font-size: 16px;&quot;&gt;&lt;font style=&quot;font-size: 16px;&quot;&gt;+ display(): void&lt;/font&gt;&lt;/p&gt;" style="verticalAlign=top;align=left;overflow=fill;html=1;whiteSpace=wrap;" vertex="1" parent="1">
          <mxGeometry x="298.5" y="10" width="281.5" height="450" as="geometry" />
        </mxCell>
        <mxCell id="DHnqmFNYcz4ugnSw5rKa-2" value="&lt;p style=&quot;margin: 4px 0px 0px; text-align: center;&quot;&gt;&lt;br&gt;&lt;b style=&quot;&quot;&gt;&lt;font style=&quot;font-size: 20px;&quot;&gt;Lecturer&lt;/font&gt;&lt;/b&gt;&lt;/p&gt;&lt;hr size=&quot;1&quot; style=&quot;border-style: solid; font-size: 16px;&quot;&gt;&lt;p style=&quot;margin: 0px 0px 0px 4px; font-size: 16px;&quot;&gt;&lt;font style=&quot;font-size: 16px;&quot;&gt;- department: String&lt;/font&gt;&lt;/p&gt;&lt;p style=&quot;margin: 0px 0px 0px 4px; font-size: 16px;&quot;&gt;&lt;font style=&quot;font-size: 16px;&quot;&gt;- yearsOfExperience: int&lt;/font&gt;&lt;/p&gt;&lt;p style=&quot;margin: 0px 0px 0px 4px; font-size: 16px;&quot;&gt;&lt;font style=&quot;font-size: 16px;&quot;&gt;- gradedScore: int&lt;/font&gt;&lt;/p&gt;&lt;p style=&quot;margin: 0px 0px 0px 4px; font-size: 16px;&quot;&gt;&lt;font style=&quot;font-size: 16px;&quot;&gt;- hasGraded: boolean&lt;/font&gt;&lt;/p&gt;&lt;hr size=&quot;1&quot; style=&quot;border-style:solid;&quot;&gt;&lt;p style=&quot;margin: 0px 0px 0px 4px; font-size: 16px;&quot;&gt;&lt;font style=&quot;font-size: 16px;&quot;&gt;+ Lecturer(&lt;/font&gt;&lt;/p&gt;&lt;p style=&quot;margin: 0px 0px 0px 4px; font-size: 16px;&quot;&gt;&lt;font style=&quot;font-size: 16px;&quot;&gt;&amp;nbsp; teacherld: int,&lt;/font&gt;&lt;/p&gt;&lt;p style=&quot;margin: 0px 0px 0px 4px; font-size: 16px;&quot;&gt;&lt;font style=&quot;font-size: 16px;&quot;&gt;&amp;nbsp; teacherName: String,&lt;/font&gt;&lt;/p&gt;&lt;p style=&quot;margin: 0px 0px 0px 4px; font-size: 16px;&quot;&gt;&lt;font style=&quot;font-size: 16px;&quot;&gt;&amp;nbsp; address: String,&lt;/font&gt;&lt;/p&gt;&lt;p style=&quot;margin: 0px 0px 0px 4px; font-size: 16px;&quot;&gt;&lt;font style=&quot;font-size: 16px;&quot;&gt;&amp;nbsp; working Type: String,&lt;/font&gt;&lt;/p&gt;&lt;p style=&quot;margin: 0px 0px 0px 4px; font-size: 16px;&quot;&gt;&lt;font style=&quot;font-size: 16px;&quot;&gt;&amp;nbsp; employmentStatus: String,&lt;/font&gt;&lt;/p&gt;&lt;p style=&quot;margin: 0px 0px 0px 4px; font-size: 16px;&quot;&gt;&lt;font style=&quot;font-size: 16px;&quot;&gt;&amp;nbsp; department: String,&lt;/font&gt;&lt;/p&gt;&lt;p style=&quot;margin: 0px 0px 0px 4px; font-size: 16px;&quot;&gt;&lt;font style=&quot;font-size: 16px;&quot;&gt;&amp;nbsp; yearsOfExperience: int)&lt;/font&gt;&lt;/p&gt;&lt;p style=&quot;margin: 0px 0px 0px 4px; font-size: 16px;&quot;&gt;&lt;font style=&quot;font-size: 16px;&quot;&gt;+ getDepartment(): String&lt;/font&gt;&lt;/p&gt;&lt;p style=&quot;margin: 0px 0px 0px 4px; font-size: 16px;&quot;&gt;&lt;font style=&quot;font-size: 16px;&quot;&gt;+ getYearsOfExperience(): int&lt;/font&gt;&lt;/p&gt;&lt;p style=&quot;margin: 0px 0px 0px 4px; font-size: 16px;&quot;&gt;&lt;font style=&quot;font-size: 16px;&quot;&gt;+ getGradedScore(): int&lt;/font&gt;&lt;/p&gt;&lt;p style=&quot;margin: 0px 0px 0px 4px; font-size: 16px;&quot;&gt;&lt;font style=&quot;font-size: 16px;&quot;&gt;+ getHasGraded(): boolean&lt;/font&gt;&lt;/p&gt;&lt;p style=&quot;margin: 0px 0px 0px 4px; font-size: 16px;&quot;&gt;&lt;font style=&quot;font-size: 16px;&quot;&gt;+ setGradedScore(score: int): void&lt;/font&gt;&lt;/p&gt;&lt;p style=&quot;margin: 0px 0px 0px 4px; font-size: 16px;&quot;&gt;&lt;font style=&quot;font-size: 16px;&quot;&gt;+ gradeAssignment(&lt;/font&gt;&lt;/p&gt;&lt;p style=&quot;margin: 0px 0px 0px 4px; font-size: 16px;&quot;&gt;&lt;font style=&quot;font-size: 16px;&quot;&gt;&amp;nbsp; gradedScore: int,&lt;/font&gt;&lt;/p&gt;&lt;p style=&quot;margin: 0px 0px 0px 4px; font-size: 16px;&quot;&gt;&lt;font style=&quot;font-size: 16px;&quot;&gt;&amp;nbsp; department: String,&lt;/font&gt;&lt;/p&gt;&lt;p style=&quot;margin: 0px 0px 0px 4px; font-size: 16px;&quot;&gt;&lt;font style=&quot;font-size: 16px;&quot;&gt;&amp;nbsp; yearsOfExperience: int): void&lt;/font&gt;&lt;/p&gt;&lt;p style=&quot;margin: 0px 0px 0px 4px; font-size: 16px;&quot;&gt;&lt;font style=&quot;font-size: 16px;&quot;&gt;+ display(): void&lt;/font&gt;&lt;/p&gt;" style="verticalAlign=top;align=left;overflow=fill;html=1;whiteSpace=wrap;" vertex="1" parent="1">
          <mxGeometry x="-10" y="490" width="300" height="510" as="geometry" />
        </mxCell>
        <mxCell id="DHnqmFNYcz4ugnSw5rKa-3" value="&lt;p style=&quot;margin: 4px 0px 0px; text-align: center;&quot;&gt;&lt;br&gt;&lt;b style=&quot;&quot;&gt;&lt;font style=&quot;font-size: 20px;&quot;&gt;Tutor&lt;/font&gt;&lt;/b&gt;&lt;/p&gt;&lt;hr size=&quot;1&quot; style=&quot;border-style: solid; font-size: 16px;&quot;&gt;&lt;p style=&quot;margin: 0px 0px 0px 4px; font-size: 16px;&quot;&gt;&lt;font style=&quot;font-size: 16px;&quot;&gt;- teacherld: int&lt;/font&gt;&lt;/p&gt;&lt;p style=&quot;margin: 0px 0px 0px 4px; font-size: 16px;&quot;&gt;&lt;font style=&quot;font-size: 16px;&quot;&gt;- teacherName: String&lt;/font&gt;&lt;/p&gt;&lt;p style=&quot;margin: 0px 0px 0px 4px; font-size: 16px;&quot;&gt;&lt;font style=&quot;font-size: 16px;&quot;&gt;- address: String&lt;/font&gt;&lt;/p&gt;&lt;p style=&quot;margin: 0px 0px 0px 4px; font-size: 16px;&quot;&gt;&lt;font style=&quot;font-size: 16px;&quot;&gt;- workingType: String&lt;/font&gt;&lt;/p&gt;&lt;p style=&quot;margin: 0px 0px 0px 4px; font-size: 16px;&quot;&gt;&lt;font style=&quot;font-size: 16px;&quot;&gt;- employmentStatus: String&lt;/font&gt;&lt;/p&gt;&lt;p style=&quot;margin: 0px 0px 0px 4px; font-size: 16px;&quot;&gt;&lt;font style=&quot;font-size: 16px;&quot;&gt;- workingHours: int&lt;/font&gt;&lt;/p&gt;&lt;p style=&quot;margin: 0px 0px 0px 4px; font-size: 16px;&quot;&gt;&lt;font style=&quot;font-size: 16px;&quot;&gt;- salary: double&lt;/font&gt;&lt;/p&gt;&lt;p style=&quot;margin: 0px 0px 0px 4px; font-size: 16px;&quot;&gt;&lt;font style=&quot;font-size: 16px;&quot;&gt;- specialization: String&lt;/font&gt;&lt;/p&gt;&lt;p style=&quot;margin: 0px 0px 0px 4px; font-size: 16px;&quot;&gt;&lt;font style=&quot;font-size: 16px;&quot;&gt;- academicQualifications: String&lt;/font&gt;&lt;/p&gt;&lt;p style=&quot;margin: 0px 0px 0px 4px; font-size: 16px;&quot;&gt;&lt;font style=&quot;font-size: 16px;&quot;&gt;- performancelndex: int&lt;/font&gt;&lt;/p&gt;&lt;p style=&quot;margin: 0px 0px 0px 4px; font-size: 16px;&quot;&gt;&lt;font style=&quot;font-size: 16px;&quot;&gt;- isCertified: boolean&lt;/font&gt;&lt;/p&gt;&lt;hr size=&quot;1&quot; style=&quot;border-style:solid;&quot;&gt;&lt;p style=&quot;margin: 0px 0px 0px 4px; font-size: 16px;&quot;&gt;&lt;font style=&quot;font-size: 16px;&quot;&gt;+ Tutor(&lt;/font&gt;&lt;/p&gt;&lt;p style=&quot;margin: 0px 0px 0px 4px; font-size: 16px;&quot;&gt;&lt;font style=&quot;font-size: 16px;&quot;&gt;&amp;nbsp; teacherld: int,&lt;/font&gt;&lt;/p&gt;&lt;p style=&quot;margin: 0px 0px 0px 4px; font-size: 16px;&quot;&gt;&lt;font style=&quot;font-size: 16px;&quot;&gt;&amp;nbsp; teacherName: String,&lt;/font&gt;&lt;/p&gt;&lt;p style=&quot;margin: 0px 0px 0px 4px; font-size: 16px;&quot;&gt;&lt;font style=&quot;font-size: 16px;&quot;&gt;&amp;nbsp; address: String,&lt;/font&gt;&lt;/p&gt;&lt;p style=&quot;margin: 0px 0px 0px 4px; font-size: 16px;&quot;&gt;&lt;font style=&quot;font-size: 16px;&quot;&gt;&amp;nbsp; working Type: String,&lt;/font&gt;&lt;/p&gt;&lt;p style=&quot;margin: 0px 0px 0px 4px; font-size: 16px;&quot;&gt;&lt;font style=&quot;font-size: 16px;&quot;&gt;&amp;nbsp; employmentStatus: String,&lt;/font&gt;&lt;/p&gt;&lt;p style=&quot;margin: 0px 0px 0px 4px; font-size: 16px;&quot;&gt;&lt;font style=&quot;font-size: 16px;&quot;&gt;&amp;nbsp; workingHours: int,&lt;/font&gt;&lt;/p&gt;&lt;p style=&quot;margin: 0px 0px 0px 4px; font-size: 16px;&quot;&gt;&lt;font style=&quot;font-size: 16px;&quot;&gt;&amp;nbsp; salary: double,&lt;/font&gt;&lt;/p&gt;&lt;p style=&quot;margin: 0px 0px 0px 4px; font-size: 16px;&quot;&gt;&lt;font style=&quot;font-size: 16px;&quot;&gt;&amp;nbsp; specialization: String,&lt;/font&gt;&lt;/p&gt;&lt;p style=&quot;margin: 0px 0px 0px 4px; font-size: 16px;&quot;&gt;&lt;font style=&quot;font-size: 16px;&quot;&gt;&amp;nbsp; academicQualifications: String,&lt;/font&gt;&lt;/p&gt;&lt;p style=&quot;margin: 0px 0px 0px 4px; font-size: 16px;&quot;&gt;&lt;font style=&quot;font-size: 16px;&quot;&gt;&amp;nbsp; performanceindex: int)&lt;/font&gt;&lt;/p&gt;&lt;p style=&quot;margin: 0px 0px 0px 4px; font-size: 16px;&quot;&gt;&lt;font style=&quot;font-size: 16px;&quot;&gt;+ getSalary(): double&lt;/font&gt;&lt;/p&gt;&lt;p style=&quot;margin: 0px 0px 0px 4px; font-size: 16px;&quot;&gt;&lt;font style=&quot;font-size: 16px;&quot;&gt;+ getSpecialization(): String&lt;/font&gt;&lt;/p&gt;&lt;p style=&quot;margin: 0px 0px 0px 4px; font-size: 16px;&quot;&gt;&lt;font style=&quot;font-size: 16px;&quot;&gt;+ getAcademicQualifications(): String&lt;/font&gt;&lt;/p&gt;&lt;p style=&quot;margin: 0px 0px 0px 4px; font-size: 16px;&quot;&gt;&lt;font style=&quot;font-size: 16px;&quot;&gt;+ getPerformancelndex(): int&lt;/font&gt;&lt;/p&gt;&lt;p style=&quot;margin: 0px 0px 0px 4px; font-size: 16px;&quot;&gt;&lt;font style=&quot;font-size: 16px;&quot;&gt;+ isCertified(): boolean&lt;/font&gt;&lt;/p&gt;&lt;p style=&quot;margin: 0px 0px 0px 4px; font-size: 16px;&quot;&gt;&lt;font style=&quot;font-size: 16px;&quot;&gt;+ setSalary(&lt;/font&gt;&lt;/p&gt;&lt;p style=&quot;margin: 0px 0px 0px 4px; font-size: 16px;&quot;&gt;&lt;font style=&quot;font-size: 16px;&quot;&gt;&amp;nbsp; - newSalary: double&lt;/font&gt;&lt;/p&gt;&lt;p style=&quot;margin: 0px 0px 0px 4px; font-size: 16px;&quot;&gt;&lt;font style=&quot;font-size: 16px;&quot;&gt;&amp;nbsp; - newPerformancelndex: int): void&lt;/font&gt;&lt;/p&gt;&lt;p style=&quot;margin: 0px 0px 0px 4px; font-size: 16px;&quot;&gt;&lt;font style=&quot;font-size: 16px;&quot;&gt;+ removeTutor(): void&lt;/font&gt;&lt;/p&gt;&lt;p style=&quot;margin: 0px 0px 0px 4px; font-size: 16px;&quot;&gt;&lt;font style=&quot;font-size: 16px;&quot;&gt;+ display(): void&lt;/font&gt;&lt;/p&gt;" style="verticalAlign=top;align=left;overflow=fill;html=1;whiteSpace=wrap;" vertex="1" parent="1">
          <mxGeometry x="660" y="300" width="290" height="700" as="geometry" />
        </mxCell>
        <mxCell id="DHnqmFNYcz4ugnSw5rKa-9" style="edgeStyle=orthogonalEdgeStyle;rounded=0;orthogonalLoop=1;jettySize=auto;html=1;" edge="1" parent="1" source="DHnqmFNYcz4ugnSw5rKa-4" target="DHnqmFNYcz4ugnSw5rKa-2">
          <mxGeometry relative="1" as="geometry" />
        </mxCell>
        <mxCell id="DHnqmFNYcz4ugnSw5rKa-10" style="edgeStyle=orthogonalEdgeStyle;rounded=0;orthogonalLoop=1;jettySize=auto;html=1;" edge="1" parent="1" source="DHnqmFNYcz4ugnSw5rKa-4" target="DHnqmFNYcz4ugnSw5rKa-3">
          <mxGeometry relative="1" as="geometry" />
        </mxCell>
        <mxCell id="DHnqmFNYcz4ugnSw5rKa-4" value="&lt;p style=&quot;margin: 4px 0px 0px; text-align: center; font-size: 16px;&quot;&gt;&lt;b style=&quot;&quot;&gt;&lt;font style=&quot;font-size: 16px;&quot;&gt;TeacherGui&lt;/font&gt;&lt;/b&gt;&lt;/p&gt;&lt;hr size=&quot;1&quot; style=&quot;border-style: solid; font-size: 16px;&quot;&gt;&lt;p style=&quot;margin: 0px 0px 0px 4px; font-size: 16px;&quot;&gt;&lt;font style=&quot;font-size: 16px;&quot;&gt;-addedTeachers: Arraylist&amp;lt;Teacher&amp;gt;&lt;/font&gt;&lt;/p&gt;&lt;hr size=&quot;1&quot; style=&quot;border-style: solid; font-size: 16px;&quot;&gt;&lt;p style=&quot;margin: 0px 0px 0px 4px; font-size: 16px;&quot;&gt;&lt;font style=&quot;font-size: 16px;&quot;&gt;+ main(String[] args): void&lt;/font&gt;&lt;/p&gt;" style="verticalAlign=top;align=left;overflow=fill;html=1;whiteSpace=wrap;" vertex="1" parent="1">
          <mxGeometry x="350" y="1100" width="300" height="140" as="geometry" />
        </mxCell>
        <mxCell id="DHnqmFNYcz4ugnSw5rKa-8" style="edgeStyle=orthogonalEdgeStyle;rounded=0;orthogonalLoop=1;jettySize=auto;html=1;entryX=0.368;entryY=1;entryDx=0;entryDy=0;entryPerimeter=0;" edge="1" parent="1" source="DHnqmFNYcz4ugnSw5rKa-2" target="DHnqmFNYcz4ugnSw5rKa-1">
          <mxGeometry relative="1" as="geometry" />
        </mxCell>
        <mxCell id="DHnqmFNYcz4ugnSw5rKa-11" style="edgeStyle=orthogonalEdgeStyle;rounded=0;orthogonalLoop=1;jettySize=auto;html=1;entryX=0.6;entryY=1.001;entryDx=0;entryDy=0;entryPerimeter=0;" edge="1" parent="1" source="DHnqmFNYcz4ugnSw5rKa-3" target="DHnqmFNYcz4ugnSw5rKa-1">
          <mxGeometry relative="1" as="geometry" />
        </mxCell>
      </root>
    </mxGraphModel>
  </diagram>
</mxfile>
